<?xml version="1.0" encoding="UTF-8" standalone="no"?><!DOCTYPE svg PUBLIC "-//W3C//DTD SVG 1.1//EN" "http://www.w3.org/Graphics/SVG/1.1/DTD/svg11.dtd"><svg width="100%" height="100%" viewBox="0 0 300 150" version="1.1" xmlns="http://www.w3.org/2000/svg" xmlns:xlink="http://www.w3.org/1999/xlink" xml:space="preserve" xmlns:serif="http://www.serif.com/" style="fillRule:evenodd;clipRule:evenodd;stroke-linejoin:round;stroke-miterlimit:2;"><rect id="Artboard1" x="0" y="0" width="300" height="150" style="fill:none;"/><g id="Artboard11" serif:id="Artboard1"><g><rect x="94.188" y="25.068" width="19.352" height="83.98" style="fill:#fff;"/><path d="M210.817,66.883c0,-25.317 19.345,-43.426 45.382,-43.426c14.456,0 26.519,5.273 34.394,14.876l-12.417,11.513c-5.611,-6.474 -12.666,-9.836 -21.022,-9.836c-15.643,-0 -26.752,11.038 -26.752,26.873c0,15.842 11.109,26.88 26.752,26.88c8.356,0 15.411,-3.369 21.022,-9.965l12.417,11.521c-7.875,9.716 -19.938,14.997 -34.507,14.997c-25.924,-0 -45.269,-18.117 -45.269,-43.433" style="fill:#fff;fillRule:nonzero;"/><path d="M36.159,40.905l-26.752,0l0,-15.842l72.856,-0l0,15.842l-26.76,0l0,68.145l-19.344,0l0,-68.145Z" style="fill:#fff;fillRule:nonzero;"/><path d="M178.912,24.792l-19.103,0l-37.26,83.965l19.826,0l26.88,-64.904l26.737,64.904l20.314,0l-37.394,-83.965Z" style="fill:#fff;fillRule:nonzero;"/><path d="M103.373,126.397l-0.024,-8.528l-1.55,-0l-3.003,5.299l-3.049,-5.299l-1.559,-0l0,8.528l1.769,-0l-0,-5.007l2.385,4.105l0.85,0l2.397,-4.215l0.012,5.117l1.772,-0Z" style="fill:#fff;"/><path d="M112.56,125.338l-0.955,-0.926c0.35,-0.549 0.594,-1.207 0.746,-1.938l-1.456,-0.475c-0.093,0.499 -0.233,0.95 -0.407,1.328l-1.489,-1.45c1.105,-0.634 1.594,-1.28 1.594,-2.158c-0,-1.205 -0.931,-1.96 -2.34,-1.96c-1.537,0 -2.538,0.852 -2.538,2.095c0,0.609 0.245,1.157 0.838,1.803c-1.246,0.732 -1.792,1.475 -1.792,2.548c-0,1.364 1.314,2.338 3.108,2.338c1.048,-0 1.979,-0.341 2.724,-0.95l0.978,0.95l0.989,-1.205Zm-4.307,-6.289c0.524,0 0.804,0.293 0.804,0.707c0,0.39 -0.256,0.707 -1.06,1.158c-0.502,-0.512 -0.63,-0.756 -0.63,-1.085c0,-0.451 0.327,-0.78 0.886,-0.78Zm-0.256,6.009c-0.897,-0 -1.456,-0.439 -1.456,-1.061c-0,-0.524 0.268,-0.914 1.013,-1.365l1.968,1.926c-0.442,0.329 -0.966,0.5 -1.525,0.5Z" style="fill:#fff;"/><rect x="113.784" y="117.869" width="1.885" height="8.528" style="fill:#fff;"/><path d="M123.575,126.543c2.329,-0 3.458,-1.217 3.458,-2.642c-0,-3.13 -4.739,-2.045 -4.739,-3.619c0,-0.537 0.431,-0.977 1.549,-0.977c0.723,0 1.503,0.22 2.259,0.672l0.582,-1.5c-0.756,-0.499 -1.804,-0.755 -2.829,-0.755c-2.317,0 -3.434,1.206 -3.434,2.658c-0,3.168 4.739,2.072 4.739,3.667c-0,0.524 -0.455,0.913 -1.573,0.913c-0.978,0 -2.003,-0.365 -2.689,-0.889l-0.64,1.486c0.721,0.584 2.024,0.986 3.317,0.986Z" style="fill:#fff;"/><path d="M135.23,117.869l-1.851,-0l-2.177,3.789l-2.177,-3.789l-2.002,-0l3.155,5.482l0,3.046l1.885,-0l-0,-3.022l3.167,-5.506Z" style="fill:#fff;"/><path d="M138.526,126.543c2.328,-0 3.457,-1.217 3.457,-2.642c-0,-3.13 -4.739,-2.045 -4.739,-3.619c0,-0.537 0.431,-0.977 1.549,-0.977c0.723,0 1.503,0.22 2.259,0.672l0.582,-1.5c-0.756,-0.499 -1.804,-0.755 -2.829,-0.755c-2.317,0 -3.434,1.206 -3.434,2.658c0,3.168 4.739,2.072 4.739,3.667c-0,0.524 -0.454,0.913 -1.573,0.913c-0.978,0 -2.003,-0.365 -2.689,-0.889l-0.64,1.486c0.721,0.584 2.025,0.986 3.318,0.986Z" style="fill:#fff;"/><path d="M144.849,126.397l1.884,-0l0,-6.921l2.609,-0l-0,-1.607l-7.101,-0l-0,1.607l2.608,-0l-0,6.921Z" style="fill:#fff;"/><path d="M152.229,124.814l0,-1.975l3.784,-0l0,-1.534l-3.784,-0l0,-1.854l4.285,0l-0,-1.582l-6.158,-0l0,8.528l6.309,-0l0,-1.583l-4.436,0Z" style="fill:#fff;"/><path d="M167.353,126.397l-0.024,-8.528l-1.55,-0l-3.003,5.299l-3.048,-5.299l-1.559,-0l-0,8.528l1.768,-0l0,-5.007l2.386,4.105l0.849,0l2.397,-4.215l0.012,5.117l1.772,-0Z" style="fill:#fff;"/><path d="M171.965,126.543c2.329,-0 3.458,-1.217 3.458,-2.642c-0,-3.13 -4.739,-2.045 -4.739,-3.619c-0,-0.537 0.431,-0.977 1.549,-0.977c0.722,0 1.503,0.22 2.259,0.672l0.582,-1.5c-0.757,-0.499 -1.804,-0.755 -2.829,-0.755c-2.317,0 -3.434,1.206 -3.434,2.658c-0,3.168 4.739,2.072 4.739,3.667c-0,0.524 -0.455,0.913 -1.573,0.913c-0.979,0 -2.003,-0.365 -2.689,-0.889l-0.64,1.486c0.721,0.584 2.024,0.986 3.317,0.986Z" style="fill:#fff;"/><path d="M185.519,124.497c-0.478,0.268 -0.955,0.366 -1.468,0.366c-1.56,-0 -2.644,-1.134 -2.644,-2.73c0,-1.621 1.084,-2.731 2.668,-2.731c0.827,0 1.514,0.305 2.107,0.963l1.21,-1.168c-0.791,-0.963 -1.978,-1.475 -3.411,-1.475c-2.597,0 -4.482,1.839 -4.482,4.411c0,2.571 1.885,4.41 4.448,4.41c1.164,-0 2.398,-0.377 3.294,-1.084l-0,-3.46l-1.722,-0l-0,2.498Z" style="fill:#fff;"/><path d="M196.206,126.397l-1.827,-2.742c1.059,-0.474 1.676,-1.412 1.676,-2.692c-0,-1.913 -1.362,-3.094 -3.539,-3.094l-3.527,-0l-0,8.528l1.884,-0l0,-2.376l1.736,-0l1.573,2.376l2.024,-0Zm-2.059,-5.434c-0,0.926 -0.583,1.487 -1.736,1.487l-1.538,0l0,-2.974l1.538,-0c1.153,-0 1.736,0.548 1.736,1.487Z" style="fill:#fff;"/><path d="M201.493,126.543c2.562,-0 4.459,-1.863 4.459,-4.41c-0,-2.548 -1.897,-4.411 -4.459,-4.411c-2.574,0 -4.459,1.876 -4.459,4.411c0,2.535 1.885,4.41 4.459,4.41Zm-0,-1.68c-1.456,-0 -2.551,-1.109 -2.551,-2.73c0,-1.621 1.095,-2.731 2.551,-2.731c1.456,0 2.551,1.11 2.551,2.731c-0,1.621 -1.095,2.73 -2.551,2.73Z" style="fill:#fff;"/><path d="M210.994,126.543c2.317,-0 3.69,-1.388 3.69,-3.898l0,-4.776l-1.861,-0l-0,4.703c-0,1.621 -0.664,2.291 -1.817,2.291c-1.142,-0 -1.818,-0.67 -1.818,-2.291l0,-4.703l-1.884,-0l-0,4.776c-0,2.51 1.373,3.898 3.69,3.898Z" style="fill:#fff;"/><path d="M220.076,117.869l-3.528,-0l0,8.528l1.885,-0l0,-2.352l1.643,-0c2.177,-0 3.539,-1.181 3.539,-3.082c-0,-1.913 -1.362,-3.094 -3.539,-3.094Zm-0.105,4.569l-1.538,0l0,-2.962l1.538,-0c1.153,-0 1.735,0.548 1.735,1.487c0,0.926 -0.582,1.475 -1.735,1.475Z" style="fill:#fff;"/><path d="M232.021,126.47c1.199,-0 2.271,-0.426 2.992,-1.254l-0.547,-0.572c-0.664,0.718 -1.479,1.023 -2.41,1.023c-1.968,0 -3.446,-1.511 -3.446,-3.534c-0,-2.022 1.478,-3.535 3.446,-3.535c0.931,0 1.746,0.306 2.41,1.013l0.547,-0.573c-0.721,-0.829 -1.793,-1.242 -2.98,-1.242c-2.457,-0 -4.272,1.84 -4.272,4.337c0,2.498 1.815,4.337 4.26,4.337Z" style="fill:#fff;"/><path d="M240.242,126.47c2.446,-0 4.272,-1.839 4.272,-4.337c0,-2.499 -1.826,-4.337 -4.272,-4.337c-2.469,-0 -4.284,1.85 -4.284,4.337c-0,2.486 1.815,4.337 4.284,4.337Zm-0,-0.803c-1.968,0 -3.436,-1.499 -3.436,-3.534c0,-2.036 1.468,-3.535 3.436,-3.535c1.956,0 3.412,1.499 3.412,3.535c0,2.035 -1.456,3.534 -3.412,3.534Z" style="fill:#fff;"/><path d="M254.203,117.869l-3.505,6.323l-3.54,-6.323l-0.709,-0l-0,8.528l0.825,-0l-0,-6.786l3.202,5.701l0.408,0l3.203,-5.738l-0,6.823l0.825,-0l-0,-8.528l-0.709,-0Z" style="fill:#fff;"/><path d="M260.618,117.869l-3.05,-0l0,8.528l0.86,-0l0,-2.693l2.19,-0c2.073,-0 3.329,-1.095 3.329,-2.912c0,-1.828 -1.256,-2.923 -3.329,-2.923Zm-0.023,5.044l-2.167,0l0,-4.266l2.167,0c1.63,0 2.492,0.78 2.492,2.145c-0,1.341 -0.862,2.121 -2.492,2.121Z" style="fill:#fff;"/><path d="M271.492,126.397l0.908,-0l-3.725,-8.528l-0.85,-0l-3.725,8.528l0.896,-0l0.978,-2.279l4.54,0l0.978,2.279Zm-5.203,-3.008l1.955,-4.584l1.956,4.584l-3.911,-0Z" style="fill:#fff;"/><path d="M279.714,117.869l-0,6.92l-5.253,-6.92l-0.709,-0l0,8.528l0.86,-0l0,-6.92l5.241,6.92l0.709,-0l0,-8.528l-0.848,-0Z" style="fill:#fff;"/><path d="M289.271,117.869l-0.861,-0l-2.794,4.788l-2.794,-4.788l-0.919,-0l3.26,5.579l-0,2.949l0.848,-0l0,-2.949l3.26,-5.579Z" style="fill:#fff;"/></g></g></svg>